<svg xmlns="http://www.w3.org/2000/svg" width="1173.445" height="1171.032" viewBox="0 0 1173.445 1171.032">
  <path id="Exclusion_1" data-name="Exclusion 1" d="M269.173,957.079a48.854,48.854,0,0,1-29.656-10.032,47.278,47.278,0,0,1-14.7-18.682,45.751,45.751,0,0,1-3.336-11.89,48.151,48.151,0,0,1,.005-13.1l17.825-131.392h0v0h0a362.608,362.608,0,0,0,53.152,59.76,44.353,44.353,0,0,1-2.427-10.486,46.007,46.007,0,0,1,.171-11.05L364.7,261.3a45.833,45.833,0,0,1,2.522-10,44.592,44.592,0,0,1,4.6-8.967A361.021,361.021,0,0,0,305.3,285.567l0,0,15.809-116.53a49,49,0,0,1,3.588-12.925,48.206,48.206,0,0,1,6.6-10.948,50.832,50.832,0,0,1,19.794-14.918,51.692,51.692,0,0,1,9.814-3.054,50.641,50.641,0,0,1,10.128-1.032c1.515,0,3.042.071,4.538.21a48.238,48.238,0,0,1,12.462,2.855,49.017,49.017,0,0,1,11.79,6.4L495.851,206.1a358.772,358.772,0,0,0-78.068,17.011,44.627,44.627,0,0,1,9.4,2.93,45.881,45.881,0,0,1,8.73,5.039L882.51,558.79A45.445,45.445,0,0,1,893.263,569.9a363.193,363.193,0,0,1-5.387,56.921,43.972,43.972,0,0,0,8.528-12.028,46.045,46.045,0,0,0,3.227-30.554,43.935,43.935,0,0,0-6.368-14.34c.03-1.908.045-3.781.045-5.727a362.692,362.692,0,0,0-7.124-71.619l111.084,81.522a48.1,48.1,0,0,1,9.428,9.1,45.7,45.7,0,0,1,6.235,10.659,47.281,47.281,0,0,1,3.226,23.553,48.871,48.871,0,0,1-18.148,32.629,51.529,51.529,0,0,1-11.952,7.079L862.811,709.405a357.975,357.975,0,0,0,25.065-82.586,45.207,45.207,0,0,1-14.4,9.674l-222.857,94.6a204.416,204.416,0,0,0,86.693-166.919c0-112.486-91.514-204-204-204s-204,91.514-204,204,91.514,204,204,204a205.67,205.67,0,0,0,38.493-3.627L352.38,857.684a45.117,45.117,0,0,1-17.713,3.647,44.262,44.262,0,0,1-5.059-.291,359.134,359.134,0,0,0,79.269,41.048l-119.889,50.89a51.5,51.5,0,0,1-13.395,3.68A49.342,49.342,0,0,1,269.173,957.079Zm23.289-125.334a45.529,45.529,0,0,0,37.146,29.295A362.935,362.935,0,0,1,292.462,831.745ZM409.384,222.3a45.478,45.478,0,0,0-37.564,20.033,359.053,359.053,0,0,1,45.963-19.228A44.343,44.343,0,0,0,409.384,222.3ZM533.308,924.171a363.339,363.339,0,0,1-64.074-5.686,358.512,358.512,0,0,1-60.356-16.4L862.81,709.405a359.535,359.535,0,0,1-329.5,214.766Zm-294-152.187h0a358.326,358.326,0,0,1-66-207.812,365.388,365.388,0,0,1,2.367-41.505A360.036,360.036,0,0,1,305.3,285.569L239.309,771.984Zm332.5-7.441v0l78.8-33.451a202.938,202.938,0,0,1-78.8,33.453ZM886.183,492.553,495.851,206.1a364.433,364.433,0,0,1,101.3,3.719,358.91,358.91,0,0,1,165.5,76.856A360.554,360.554,0,0,1,868.635,432.93a358.359,358.359,0,0,1,17.548,59.62Z" transform="matrix(0.799, -0.602, 0.602, 0.799, -214.336, 510.974)" fill="#cb2376"/>
</svg>
