<svg xmlns="http://www.w3.org/2000/svg" width="247.833" height="70" viewBox="0 0 247.833 70">
  <path id="Subtraction_3" data-name="Subtraction 3" d="M206.5,637a147.014,147.014,0,0,1-14.788-.747A144.849,144.849,0,0,1,86.563,573.229c-1.372-2.03-2.711-4.126-3.98-6.229h76.294a88.41,88.41,0,0,0,95.246,0h76.294c-1.271,2.107-2.61,4.2-3.979,6.229a145.061,145.061,0,0,1-63.637,52.4,143.8,143.8,0,0,1-41.512,10.62A147.014,147.014,0,0,1,206.5,637Z" transform="translate(-82.583 -567)" fill="rgba(203,35,118,0.29)"/>
</svg>
