<svg xmlns="http://www.w3.org/2000/svg" width="748" height="748" viewBox="0 0 748 748">
  <path id="Subtraction_2" data-name="Subtraction 2" d="M374,748a379.987,379.987,0,0,1-38.239-1.931A373.44,373.44,0,0,1,1.931,412.24a379.608,379.608,0,0,1,0-76.479A373.441,373.441,0,0,1,335.761,1.931a379.608,379.608,0,0,1,76.479,0,373.44,373.44,0,0,1,333.829,333.83,379.6,379.6,0,0,1,0,76.479A373.439,373.439,0,0,1,412.24,746.069,379.986,379.986,0,0,1,374,748Zm0-603c-126.271,0-229,102.729-229,229S247.729,603,374,603,603,500.271,603,374,500.271,145,374,145Z" transform="translate(0 0)" fill="rgba(203,35,118,0.29)"/>
</svg>
