<svg xmlns="http://www.w3.org/2000/svg" width="119.77" height="133.615" viewBox="0 0 119.77 133.615">
  <g id="Group_1" data-name="Group 1" transform="translate(-0.001 0.004)">
    <path id="Path_1" data-name="Path 1" d="M27.43,31.79,1.26,78.97a10.025,10.025,0,0,0,.14,9.97l23.55,39.74c5.11,8.63,18.33,5.22,18.64-4.8l2.63-86.92c.32-10.5-13.68-14.35-18.78-5.16Z" fill="#89d0c2"/>
    <path id="Path_2" data-name="Path 2" d="M91.26,10.47,72.41.64a5.7,5.7,0,0,0-5.65.22L51.25,10.58a5.683,5.683,0,0,0,3,10.5l34.36.11a5.688,5.688,0,0,0,2.65-10.73Z" fill="#89d0c2"/>
    <path id="Path_3" data-name="Path 3" d="M92.56,67.34a5.743,5.743,0,0,0,10.74,3.02L114.04,51.3a5.734,5.734,0,0,0-.05-5.71l-9.51-16.26a5.74,5.74,0,0,0-10.69,2.7L92.57,67.35Z" fill="#89d0c2"/>
    <path id="Path_4" data-name="Path 4" d="M119.63,126.03l-3.86-18.91a6.3,6.3,0,0,0-4.14-4.7L95.89,97.08a6.288,6.288,0,0,0-6.91,9.91l19.6,24.26a6.287,6.287,0,0,0,11.05-5.21Z" fill="#89d0c2"/>
    <path id="Path_5" data-name="Path 5" d="M79.72,76.81l-16.48-.08a5.346,5.346,0,0,0-2.51,10.08l9.03,4.74a5.35,5.35,0,0,0,5.32-.2l7.45-4.66a5.34,5.34,0,0,0-2.81-9.87Z" fill="#89d0c2"/>
  </g>
</svg>
