<?xml version="1.0" encoding="utf-8"?>
<!-- Generator: Adobe Illustrator 27.0.1, SVG Export Plug-In . SVG Version: 6.00 Build 0)  -->
<svg version="1.1" id="Laptop" xmlns="http://www.w3.org/2000/svg" xmlns:xlink="http://www.w3.org/1999/xlink" x="0px" y="0px"
	 viewBox="0 0 600 400" style="enable-background:new 0 0 600 400;" xml:space="preserve">
<style type="text/css">
	.st0{fill:#CB2376;}
	.st1{fill:#42E8E0;}
	.st2{fill:url(#SVGID_1_);}
	.st3{fill:url(#SVGID_00000173879740589813154210000002466969242137907350_);}
	.st4{fill:#24126A;}
	.st5{opacity:0.51;}
	.st6{fill:#453C9E;}
	.st7{fill:#122E3F;}
	.st8{opacity:0.8;}
	.st9{fill:#828DAA;}
	.st10{opacity:0.5;fill:url(#SVGID_00000148633469369253326880000013019819418224285872_);}
</style>
<path class="st0" d="M460.9,148.2l-11.6,6.7l0,21.5l-102.8,59.4l-7.8-4.5l53-30.6l0-5.5l9.4-5.4l0-12.6l18.2-10.5
	c0.8,0.3,1.8,0.3,2.5-0.1c0.8-0.4,0.8-1.2,0-1.6c-1-0.8-4.5-0.1-3,1.5l-18.2,10.5l0,12.6l-9,5.2l0-20.2l-0.1-0.1l-5.2-3l31.1-18
	l0-20.2l22.1-12.8c0.8,0.3,1.8,0.3,2.5-0.1c0.8-0.4,0.8-1.2,0-1.6c-1-0.8-4.5-0.1-3,1.5l-22.1,12.8l0,20.2l-31.1,18l-50.6-29.2
	l0-22.6c1.1,0,2.6-1.1,1.2-1.9c-0.8-0.4-2-0.4-2.8,0c-1.4,0.8,0.1,1.9,1.2,1.9l0,22.8c0.1,0,30.4,17.6,30.5,17.6l-22.2,0l-17.9-10.3
	c1.5-1.6-2-2.2-3-1.5c-0.8,0.4-0.8,1.2,0,1.6c0.7,0.4,1.8,0.4,2.5,0.1l18.2,10.5l23,0v0l25,14.4l0,25.6l-53,30.6l-7.1-4.1l37.5-21.7
	c0.8,0.3,1.8,0.3,2.5-0.1c0.8-0.4,0.8-1.2,0-1.6c-1-0.8-4.5-0.1-3,1.5l-37.5,21.7l-6.9-4l44.9-25.9l12.2,0c0.5,1.1,2.4,1.1,3.3,0.6
	c0.8-0.4,0.8-1.2,0-1.6c-0.9-0.5-2.8-0.5-3.3,0.6l-12.3,0c0,0-45.2,26.1-45.2,26.1l-2.8-1.6l-0.1,0.1l-2,1.2l-10.8-6.2l0-8.6
	l8.9-5.1v0l13.9,0l15.4-8.9c0.8,0.3,1.8,0.3,2.5-0.1c0.8-0.4,0.8-1.2,0-1.6c-1-0.8-4.5-0.1-3,1.5l-15,8.7l-13.1,0l26.1-15.1
	c0.8,0.3,1.9,0.3,2.6-0.1c0.8-0.4,0.8-1.2,0-1.6c-1-0.8-4.4-0.1-3,1.4l-32.6,18.8V201l19.4-11.2v-7.9l15.8-9.1
	c0.8,0.3,1.8,0.3,2.5-0.1c0.8-0.4,0.8-1.2,0-1.6c-1-0.8-4.5-0.1-3,1.5l-15.8,9.1v7.9L310,200.8v4.7l-2.7,1.6l0,9.1l10.8,6.2
	l-7.1,4.1l-22.1-12.8l0-14.5l15-8.7c0.8,0.3,1.9,0.3,2.6-0.1c0.8-0.4,0.8-1.2,0-1.6c-1-0.8-4.4-0.1-3,1.4l-14.6,8.4l0-11.7l11.5-6.7
	l0-22.1c1.1,0,2.6-1.1,1.2-1.9c-0.8-0.4-2-0.4-2.8,0c-1.4,0.8,0.1,1.9,1.2,1.9l0,21.8l-11.1,6.4l0-38.9h-0.4l0,66.5l22.1,12.8
	l-7.9,4.6l-28.9-16.7l0-39.8l-13.9-8l0-15l-12.3-7.1c1.5-1.6-2-2.2-3-1.5c-0.8,0.4-0.8,1.2,0,1.6c0.7,0.4,1.8,0.4,2.5,0.1l12.3,7.1
	l0,15l13.9,8l0,39.8l28.9,16.7l-5.9,3.4l-39-22.5l0-33.9c-0.1,0-34.6-20-34.7-20c1.5-1.6-2-2.2-3-1.5c-0.8,0.4-0.8,1.2,0,1.6
	c0.7,0.4,1.8,0.4,2.5,0.1l34.7,20l0,33.9c0.1,0,39,22.5,39,22.5l-9.5,5.5l-65-37.5v-16.9c-0.1,0-54.4-31.4-54.5-31.5
	c1.5-1.6-2-2.2-3-1.5c-0.8,0.4-0.8,1.2,0,1.6c0.7,0.4,1.8,0.4,2.5,0.1l54.5,31.5v16.9c0.1,0,36.5,21.1,36.5,21.1l-28.9,0l-33.5-19.3
	c1.5-1.6-2-2.2-3-1.5c-0.8,0.4-0.8,1.2,0,1.6c0.7,0.4,1.8,0.4,2.5,0.1l33.8,19.5l29.8,0l27.7,16l-11.1,6.4L251,233.6h-38.2
	l-43.4-25.1l-24.1,0l-9.8-5.7c1.5-1.6-2-2.2-3-1.5c-0.8,0.4-0.8,1.2,0,1.6c0.7,0.4,1.8,0.4,2.5,0.1l10.1,5.9l24.1,0l32.8,18.9h-28.3
	l-13.7-7.9c1.5-1.6-2-2.2-3-1.5c-0.8,0.4-0.8,1.2,0,1.6c0.7,0.4,1.8,0.4,2.5,0.1l14,8.1h29.2l9.9,5.7h38.2l6.7,3.8h-16.2
	c0,0-8.1,4.7-8.2,4.7l-33.9,0l-9.6-5.5h-19.2c-0.5-1.1-2.4-1.1-3.3-0.6c-0.8,0.4-0.8,1.2,0,1.6c0.9,0.5,2.8,0.5,3.3-0.6h19.1
	l9.6,5.5l33.3,0l-9.2,5.3c-0.8-0.3-1.8-0.3-2.5,0.1c-0.8,0.4-0.8,1.2,0,1.6c1,0.8,4.5,0.1,3-1.5l17.8-10.3h16.9l16,9.3l-5.9,3.4
	c-0.1,0,3.7,2.2,3.8,2.2l-11.1,0l-14.5-8.4c1.5-1.6-2-2.2-3-1.5c-0.8,0.4-0.8,1.2,0,1.6c0.7,0.4,1.8,0.4,2.5,0.1l14.8,8.6l12,0
	l8.1,4.7l-5,2.9h-8.9c0,0-7.7,4.5-7.8,4.5h-5.8l-13.1-7.6c1.6-1.6-1.9-2.3-2.9-1.5c-0.8,0.4-0.8,1.2,0,1.6c0.7,0.4,1.7,0.4,2.5,0.1
	l13.4,7.8h6c0,0,7.7-4.5,7.8-4.5h8l-16,9.2h-8.6l-18-10.4h-54.2l-33.6-19.4c1.6-1.6-2-2.3-2.9-1.5c-0.8,0.4-0.8,1.2,0,1.6
	c0.7,0.4,1.7,0.4,2.5,0.1l33.9,19.6h54.2l18,10.4h8.8c0,0,22-12.7,22-12.7l5.8,3.3l-24.8,14.3H245l-14.4-8.3l-37.1,0
	c-0.5-1.1-2.4-1.1-3.3-0.6c-0.8,0.4-0.8,1.2,0,1.6c0.9,0.5,2.8,0.5,3.3-0.6l37,0l13.7,7.9h-52.3c0,0-49.8,28.8-49.8,28.8
	c-0.8-0.3-1.8-0.3-2.5,0.1c-0.8,0.4-0.8,1.2,0,1.6c1,0.8,4.5,0.1,3-1.5l49.5-28.6h70.6c0,0,25.1-14.5,25.2-14.5l6.5,3.8l-34.6,20
	h-61c-0.1,0-53.4,30.8-53.4,30.9l-62.2,0l-36.3-20.9c1.5-1.6-2-2.2-3-1.5c-0.8,0.4-0.8,1.2,0,1.6c0.7,0.4,1.8,0.4,2.5,0.1L83,317.3
	l62.4,0c0,0,53.4-30.8,53.4-30.9h44.4L178,324l0,9.9l-26,15c-0.8-0.3-1.8-0.3-2.5,0.1c-0.8,0.4-0.8,1.2,0,1.6c1,0.8,4.5,0.1,3-1.5
	l26-15l0-9.9l65.6-37.9h15.2l-32.8,19v4.2l-15.7,9.1c-0.8-0.3-1.8-0.3-2.5,0.1c-0.8,0.4-0.8,1.2,0,1.6c1,0.8,4.5,0.1,3-1.5l8.6-4.9
	v11.4l-49.4,28.5c-0.8-0.3-1.8-0.3-2.5,0.1c-0.8,0.4-0.8,1.2,0,1.6c1,0.8,4.5,0.1,3-1.5l49.4-28.5v-12l6.7-3.9v-4.2l33.1-19.1
	l-0.1-0.2l34.8-20.1l6.3,3.7l-35.7,20.6l0,33.9l-65.7,37.9h0.9l54.4-31.4l0,30.7l-1.2,0.7h0.9l0.8-0.5l0-31.2l10.4-6l0-33.9
	l35.7-20.6l5.6,3.2l-27.6,15.9l0,18.6c0.1,0,31.4,18.1,31.4,18.2l0,6.3l-17.7,10.2c-0.8-0.3-1.8-0.3-2.5,0.1c-0.8,0.4-0.8,1.2,0,1.6
	c1,0.8,4.5,0.1,3-1.5l17.7-10.2l0-6.8c-0.1,0-31.4-18.1-31.4-18.2l0-18.1l20.8-12l0,7.8l-9.5,5.5c-0.8-0.3-1.8-0.3-2.5,0.1
	c-0.8,0.4-0.8,1.2,0,1.6c1,0.8,4.5,0.1,3-1.5l9.5-5.5l0-8.3l6.3-3.6l7.4,4.3l0,13.5l-14,8.1v9.3c0.1,0,29.6,17.1,29.7,17.1
	c-1.5,1.6,2,2.2,3,1.5c0.8-0.4,0.8-1.2,0-1.6c-0.7-0.4-1.8-0.4-2.5-0.1l-29.7-17.1v-8.8l13.6-7.9l0,9.3l18.2,10.5
	c-1.5,1.6,2,2.2,3,1.5c0.8-0.4,0.8-1.2,0-1.6c-0.7-0.4-1.8-0.4-2.5-0.1L315.4,301l0-22.8l5.2,3l0.1-0.1l8.5-4.9l7.8,4.5l0,11
	l20.7,12l0,10.3c-1.1,0-2.6,1.1-1.2,1.9c0.8,0.4,2,0.4,2.8,0c1.4-0.8-0.1-1.9-1.2-1.9l0-10.6l-20.7-12l0-10.4l33.6,19.4l0,20.6
	l-18.2,10.5h-16.7c0,0-28.7,16.6-28.7,16.6c-0.8-0.3-1.8-0.3-2.5,0.1c-0.8,0.4-0.8,1.2,0,1.6c1,0.8,4.5,0.1,3-1.5l28.4-16.4h15.8
	l-52.7,30.4c-0.8-0.3-1.9-0.3-2.6,0.1h3.2l71.4-41.3l0-21.1c-0.1,0-41.7-24.1-41.8-24.1l8.4-4.8l71.2,41.1l0,24.5l24.3,14
	c-1.5,1.6,2,2.2,3,1.5c0.8-0.4,0.8-1.2,0-1.6c-0.7-0.4-1.8-0.4-2.5-0.1l-24.3-14l0-24.5c-0.1,0-71.1-41.1-71.2-41.1l8-4.6l70.4,40.7
	h42l2,1.1v-0.5l-1.9-1.1h-42l-59.5-34.3h12l20.3,11.7l15.6,0c0,0,21.7-12.5,21.7-12.5c0.8,0.3,1.8,0.3,2.5-0.1
	c0.8-0.4,0.8-1.2,0-1.6c-1-0.8-4.5-0.1-3,1.5l-21.4,12.4l-15.4,0l-20.3-11.7h-12.8l-9.9-5.7l21.3-12.3l6.1,3.5l0,9.2l15.4,8.9
	c-1.5,1.6,2,2.2,3,1.5c0.8-0.4,0.8-1.2,0-1.6c-0.7-0.4-1.8-0.4-2.5-0.1l-15.4-8.9l0-8.7l16.4,9.5h7.8c0,0,9.3-5.4,9.3-5.4
	c0.8,0.3,1.8,0.3,2.5-0.1c0.8-0.4,0.8-1.2,0-1.6c-1-0.8-4.5-0.1-3,1.5l-9,5.2h-7.5l-22.6-13.1l4.1-2.4l-0.3-0.2l-12.8-7.4l6.1-3.5
	h9.3l6.6,3.8c-1.4,1.6,2,2.2,3,1.4c0.8-0.4,0.8-1.2,0-1.6c-0.7-0.4-1.8-0.4-2.6-0.1l-7-4h-8.6l15.7-9l36.8,21.3h26.5
	c0,0,14.9-8.6,15-8.6c0.1,0,0.2,0.1,0.3,0.1v-2c-0.9,0.2-1.6,1.1-0.7,1.7l-14.7,8.5h-26.3l-28.4-16.4l12.2,0l11.9,6.9
	c-1.5,1.6,2,2.2,3,1.5c0.8-0.4,0.8-1.2,0-1.6c-0.7-0.4-1.8-0.4-2.5-0.1l-12.2-7l-13,0l-7.3-4.2l18.7-10.8l59.5,0v-0.4l-58.7,0
	l7.4-4.3l44.3,0c0.1,0,7-4,7.1-4.1v-0.5l-7.2,4.1l-44.3,0c0,0-50.2,29-50.2,29l-5.6-3.2l52.7-30.4l38.6,0c0,0,15.9-9.2,15.9-9.2
	v-0.5l-16,9.3l-38.6,0c0,0-53,30.6-53,30.6l-6.3-3.7l102.8-59.4l0-21.5l11.1-6.4V148.2z M372,251l-51.3,29.6L269.3,251l51.3-29.6
	L372,251z"/>
<g>
	<g>
		<path class="st1" d="M331.3,328.4c-1.1,0-2.2-0.3-3-0.8l-133.9-77.3c-1.7-0.9-2-2.7-0.4-3.7c0,0,79.9-46.1,79.9-46.1
			c1.4-0.8,3.8-0.7,5.4,0.2L413.2,278c1.7,0.9,2,2.7,0.4,3.7c0,0-79.9,46.1-79.9,46.1C333,328.2,332.2,328.4,331.3,328.4z
			 M194.8,249.5l133.9,77.3c1.3,0.8,3.4,0.8,4.5,0.2l79.9-46.1c0.3-0.2,0.6-0.4,0.6-0.8c0-0.4-0.4-0.9-1-1.2l-133.9-77.3
			c-1.3-0.8-3.4-0.8-4.5-0.2l-79.9,46.1c-0.3,0.2-0.6,0.4-0.6,0.8C193.8,248.7,194.2,249.2,194.8,249.5L194.8,249.5z"/>
		<g>
			<g>
				<g>
					<g>
						<g>
							
								<linearGradient id="SVGID_1_" gradientUnits="userSpaceOnUse" x1="125.17" y1="167.2817" x2="281.4944" y2="167.2817" gradientTransform="matrix(-1 0 0 1 560.7101 0)">
								<stop  offset="0" style="stop-color:#C0BFF6"/>
								<stop  offset="0.2938" style="stop-color:#C5C4F7"/>
								<stop  offset="0.6399" style="stop-color:#D3D2F9"/>
								<stop  offset="1" style="stop-color:#E9E9FD"/>
							</linearGradient>
							<path class="st2" d="M279.2,177l16.9-100.5l-1.4-0.6l2-1.2l0,0c0.4-0.3,1-0.2,1.6,0.1l135.3,78.1c1.1,0.6,2,2.3,1.8,3.4
								l-17.1,101.3c-0.1,0.5-0.4,0.9-0.7,1l0,0l-2,1.2l-0.3-1.9l0.1,0L281,180.4C279.9,179.8,279,178.2,279.2,177z"/>
							
								<linearGradient id="SVGID_00000097502616050023535200000003293577732029790338_" gradientUnits="userSpaceOnUse" x1="125.171" y1="207.3719" x2="152.0135" y2="207.3719" gradientTransform="matrix(-1 0 0 1 560.7101 0)">
								<stop  offset="0" style="stop-color:#5761D7"/>
								<stop  offset="0.1779" style="stop-color:#5C66D9"/>
								<stop  offset="0.3876" style="stop-color:#6A73DF"/>
								<stop  offset="0.6134" style="stop-color:#8289E8"/>
								<stop  offset="0.849" style="stop-color:#A3A7F5"/>
								<stop  offset="1" style="stop-color:#BCBEFF"/>
							</linearGradient>
							<path style="fill:url(#SVGID_00000097502616050023535200000003293577732029790338_);" d="M433,155.8l2.2-1
								c0.2,0.6,0.4,1.2,0.3,1.7l-17.1,101.3c-0.1,0.5-0.4,0.9-0.7,1l0,0l-2,1.2l-0.3-1.9l0.1,0l-6.8-3.9L433,155.8z"/>
							<path class="st4" d="M278.9,181.7l135.3,78.1c1,0.6,1.9,0.3,2.1-0.8l17.1-101.3c0.2-1.2-0.6-2.8-1.8-3.4L296.3,76.1
								c-1-0.6-1.9-0.3-2.1,0.8l-17.1,101.3C276.9,179.4,277.8,181,278.9,181.7z"/>
							<g class="st5">
								<polygon class="st6" points="295.9,78 431.8,156.5 414.6,258 278.8,179.6 								"/>
							</g>
						</g>
						<g>
							<path class="st7" d="M193.8,229.6l7.4,3.9l74.1-42.8c1.2-0.7,3.4-0.6,4.8,0.2l127.7,73.7c1.2-0.7,6.8-3.4,6.8-3.4l-2.7,4.4
								c0,0,0,0,0,0c-0.1,0.3-0.4,0.6-0.8,0.8l-78,45c-1.2,0.7-3.4,0.6-4.8-0.2l-130.7-75.5c-0.6-0.3-0.9-0.7-1.1-1.2l0,0
								L193.8,229.6z"/>
							<path class="st7" d="M195,230.8l133.9,77.3c1.5,0.8,3.7,0.9,5,0.2l79.9-46.1c1.3-0.7,1.1-2-0.4-2.9L279.5,182
								c-1.5-0.8-3.7-0.9-5-0.2L194.6,228C193.3,228.7,193.5,230,195,230.8z"/>
							<path class="st7" d="M195,230.2l133.9,77.3c1.5,0.8,3.7,0.9,5,0.2l79.9-46.1c0.4-0.3,0.7-0.6,0.8-0.9
								c0.1,0.6-0.1,1.1-0.8,1.5l-79.9,46.1c-1.3,0.7-3.5,0.6-5-0.2L195,230.8c-1-0.5-1.3-1.3-1.2-1.9
								C193.9,229.4,194.3,229.8,195,230.2z"/>
						</g>
					</g>
				</g>
				<g class="st8">
					<path class="st9" d="M256.6,222.2l-4.3-2.5c-0.3-0.2-0.3-0.5,0.1-0.8l5-2.9c0.4-0.2,1-0.3,1.3-0.1l4.3,2.5
						c0.3,0.2,0.3,0.5-0.1,0.8l-5,2.9C257.5,222.4,256.9,222.4,256.6,222.2z"/>
					<path class="st9" d="M263.1,226l-4.3-2.5c-0.3-0.2-0.3-0.5,0.1-0.8l5-2.9c0.4-0.2,1-0.3,1.3-0.1l4.3,2.5
						c0.3,0.2,0.3,0.5-0.1,0.8l-5,2.9C264.1,226.2,263.5,226.2,263.1,226z"/>
					<path class="st9" d="M269.7,229.8l-4.3-2.5c-0.3-0.2-0.3-0.5,0.1-0.8l5-2.9c0.4-0.2,1-0.3,1.3-0.1l4.3,2.5
						c0.3,0.2,0.3,0.5-0.1,0.8l-5,2.9C270.6,230,270,230,269.7,229.8z"/>
					<path class="st9" d="M278.8,226.7l-4.3-2.5c-0.3-0.2-0.3-0.5,0.1-0.8l4.2-2.4c0.4-0.2,1-0.3,1.3-0.1l4.3,2.5
						c0.3,0.2,0.3,0.5-0.1,0.8l-4.2,2.4C279.7,226.9,279.1,226.9,278.8,226.7z"/>
					<path class="st9" d="M285.4,230.5l-4.3-2.5c-0.3-0.2-0.3-0.5,0.1-0.8l4.2-2.4c0.4-0.2,1-0.3,1.3-0.1l4.3,2.5
						c0.3,0.2,0.3,0.5-0.1,0.8l-4.2,2.4C286.3,230.7,285.7,230.7,285.4,230.5z"/>
					<path class="st9" d="M291.9,234.3l-4.3-2.5c-0.3-0.2-0.3-0.5,0.1-0.8l4.2-2.4c0.4-0.2,1-0.3,1.3-0.1l4.3,2.5
						c0.3,0.2,0.3,0.5-0.1,0.8l-4.2,2.4C292.9,234.5,292.3,234.5,291.9,234.3z"/>
					<path class="st9" d="M298.5,238.1l-4.3-2.5c-0.3-0.2-0.3-0.5,0.1-0.8l4.2-2.4c0.4-0.2,1-0.3,1.3-0.1l4.3,2.5
						c0.3,0.2,0.3,0.5-0.1,0.8l-4.2,2.4C299.4,238.2,298.8,238.3,298.5,238.1z"/>
					<path class="st9" d="M305.1,241.9l-4.3-2.5c-0.3-0.2-0.3-0.5,0.1-0.8l4.2-2.4c0.4-0.2,1-0.3,1.3-0.1l4.3,2.5
						c0.3,0.2,0.3,0.5-0.1,0.8l-4.2,2.4C306,242,305.4,242.1,305.1,241.9z"/>
					<path class="st9" d="M311.6,245.7l-4.3-2.5c-0.3-0.2-0.3-0.5,0.1-0.8l4.2-2.4c0.4-0.2,1-0.3,1.3-0.1l4.3,2.5
						c0.3,0.2,0.3,0.5-0.1,0.8l-4.2,2.4C312.6,245.8,312,245.9,311.6,245.7z"/>
					<path class="st9" d="M318.2,249.4l-4.3-2.5c-0.3-0.2-0.3-0.5,0.1-0.8l4.2-2.4c0.4-0.2,1-0.3,1.3-0.1l4.3,2.5
						c0.3,0.2,0.3,0.5-0.1,0.8l-4.2,2.4C319.1,249.6,318.5,249.6,318.2,249.4z"/>
					<path class="st9" d="M324.8,253.2l-4.3-2.5c-0.3-0.2-0.3-0.5,0.1-0.8l4.2-2.4c0.4-0.2,1-0.3,1.3-0.1l4.3,2.5
						c0.3,0.2,0.3,0.5-0.1,0.8l-4.2,2.4C325.7,253.4,325.1,253.4,324.8,253.2z"/>
					<path class="st9" d="M331.3,257l-4.3-2.5c-0.3-0.2-0.3-0.5,0.1-0.8l4.2-2.4c0.4-0.2,1-0.3,1.3-0.1l4.3,2.5
						c0.3,0.2,0.3,0.5-0.1,0.8l-4.2,2.4C332.3,257.2,331.7,257.2,331.3,257z"/>
					<path class="st9" d="M337.9,260.8l-4.3-2.5c-0.3-0.2-0.3-0.5,0.1-0.8l4.2-2.4c0.4-0.2,1-0.3,1.3-0.1l4.3,2.5
						c0.3,0.2,0.3,0.5-0.1,0.8l-4.2,2.4C338.8,261,338.2,261,337.9,260.8z"/>
					<path class="st9" d="M288.5,224.9l-4.3-2.5c-0.3-0.2-0.3-0.5,0.1-0.8l4.2-2.4c0.4-0.2,1-0.3,1.3-0.1l4.3,2.5
						c0.3,0.2,0.3,0.5-0.1,0.8l-4.2,2.4C289.4,225.1,288.8,225.1,288.5,224.9z"/>
					<path class="st9" d="M281.8,221.1l-4.3-2.5c-0.3-0.2-0.3-0.5,0.1-0.8l4.2-2.4c0.4-0.2,1-0.3,1.3-0.1l4.3,2.5
						c0.3,0.2,0.3,0.5-0.1,0.8l-4.2,2.4C282.7,221.2,282.1,221.3,281.8,221.1z"/>
					<path class="st9" d="M275.1,217.2l-9.2-5.3c-0.3-0.2-0.3-0.5,0.1-0.8l4.2-2.4c0.4-0.2,1-0.3,1.3-0.1l9.2,5.3
						c0.3,0.2,0.3,0.5-0.1,0.8l-4.2,2.4C276.1,217.4,275.5,217.4,275.1,217.2z"/>
					<path class="st9" d="M279.8,212.5l-7.4-4.3c-0.3-0.2-0.3-0.5,0.1-0.8l4.2-2.4c0.4-0.2,1-0.3,1.3-0.1l7.4,4.3
						c0.3,0.2,0.3,0.5-0.1,0.8l-4.2,2.4C280.7,212.7,280.1,212.7,279.8,212.5z"/>
					<path class="st9" d="M295,228.7l-4.3-2.5c-0.3-0.2-0.3-0.5,0.1-0.8l4.2-2.4c0.4-0.2,1-0.3,1.3-0.1l4.3,2.5
						c0.3,0.2,0.3,0.5-0.1,0.8l-4.2,2.4C296,228.9,295.4,228.9,295,228.7z"/>
					<path class="st9" d="M301.6,232.5l-4.3-2.5c-0.3-0.2-0.3-0.5,0.1-0.8l4.2-2.4c0.4-0.2,1-0.3,1.3-0.1l4.3,2.5
						c0.3,0.2,0.3,0.5-0.1,0.8l-4.2,2.4C302.5,232.7,301.9,232.7,301.6,232.5z"/>
					<path class="st9" d="M308.2,236.3l-4.3-2.5c-0.3-0.2-0.3-0.5,0.1-0.8l4.2-2.4c0.4-0.2,1-0.3,1.3-0.1l4.3,2.5
						c0.3,0.2,0.3,0.5-0.1,0.8l-4.2,2.4C309.1,236.4,308.5,236.5,308.2,236.3z"/>
					<path class="st9" d="M314.7,240.1l-4.3-2.5c-0.3-0.2-0.3-0.5,0.1-0.8l4.2-2.4c0.4-0.2,1-0.3,1.3-0.1l4.3,2.5
						c0.3,0.2,0.3,0.5-0.1,0.8l-4.2,2.4C315.7,240.2,315.1,240.3,314.7,240.1z"/>
					<path class="st9" d="M321.3,243.9l-4.3-2.5c-0.3-0.2-0.3-0.5,0.1-0.8l4.2-2.4c0.4-0.2,1-0.3,1.3-0.1l4.3,2.5
						c0.3,0.2,0.3,0.5-0.1,0.8l-4.2,2.4C322.2,244,321.6,244.1,321.3,243.9z"/>
					<path class="st9" d="M327.9,247.7l-4.3-2.5c-0.3-0.2-0.3-0.5,0.1-0.8l4.2-2.4c0.4-0.2,1-0.3,1.3-0.1l4.3,2.5
						c0.3,0.2,0.3,0.5-0.1,0.8l-4.2,2.4C328.8,247.8,328.2,247.8,327.9,247.7z"/>
					<path class="st9" d="M334.4,251.4l-4.3-2.5c-0.3-0.2-0.3-0.5,0.1-0.8l4.2-2.4c0.4-0.2,1-0.3,1.3-0.1l4.3,2.5
						c0.3,0.2,0.3,0.5-0.1,0.8l-4.2,2.4C335.4,251.6,334.8,251.6,334.4,251.4z"/>
					<path class="st9" d="M341,255.2l-4.3-2.5c-0.3-0.2-0.3-0.5,0.1-0.8l4.2-2.4c0.4-0.2,1-0.3,1.3-0.1l4.3,2.5
						c0.3,0.2,0.3,0.5-0.1,0.8l-4.2,2.4C341.9,255.4,341.3,255.4,341,255.2z"/>
					<path class="st9" d="M347.6,259l-4.3-2.5c-0.3-0.2-0.3-0.5,0.1-0.8l4.2-2.4c0.4-0.2,1-0.3,1.3-0.1l4.3,2.5
						c0.3,0.2,0.3,0.5-0.1,0.8l-4.2,2.4C348.5,259.2,347.9,259.2,347.6,259z"/>
					<path class="st9" d="M359.2,265.8l-9.3-5.4c-0.3-0.2-0.3-0.5,0.1-0.8l4.2-2.4c0.4-0.2,1-0.3,1.3-0.1l9.3,5.4
						c0.3,0.2,0.3,0.5-0.1,0.8l-4.2,2.4C360.2,265.9,359.6,266,359.2,265.8z"/>
					<path class="st9" d="M372,258.4l-7.8-4.5c-0.3-0.2-0.3-0.5,0.1-0.8l4.2-2.4c0.4-0.2,1-0.3,1.3-0.1l7.8,4.5
						c0.3,0.2,0.3,0.5-0.1,0.8l-4.2,2.4C373,258.6,372.4,258.6,372,258.4z"/>
					<path class="st9" d="M306.5,228l-4.3-2.5c-0.3-0.2-0.3-0.5,0.1-0.8l4.2-2.4c0.4-0.2,1-0.3,1.3-0.1l4.3,2.5
						c0.3,0.2,0.3,0.5-0.1,0.8l-4.2,2.4C307.5,228.1,306.9,228.1,306.5,228z"/>
					<path class="st9" d="M299.8,224.1l-4.3-2.5c-0.3-0.2-0.3-0.5,0.1-0.8l4.2-2.4c0.4-0.2,1-0.3,1.3-0.1l4.3,2.5
						c0.3,0.2,0.3,0.5-0.1,0.8l-4.2,2.4C300.7,224.2,300.1,224.3,299.8,224.1z"/>
					<path class="st9" d="M293.1,220.2l-4.3-2.5c-0.3-0.2-0.3-0.5,0.1-0.8l4.2-2.4c0.4-0.2,1-0.3,1.3-0.1l4.3,2.5
						c0.3,0.2,0.3,0.5-0.1,0.8l-4.2,2.4C294,220.4,293.4,220.4,293.1,220.2z"/>
					<path class="st9" d="M286.3,216.3l-4.3-2.5c-0.3-0.2-0.3-0.5,0.1-0.8l4.2-2.4c0.4-0.2,1-0.3,1.3-0.1l4.3,2.5
						c0.3,0.2,0.3,0.5-0.1,0.8l-4.2,2.4C287.3,216.5,286.7,216.5,286.3,216.3z"/>
					<path class="st9" d="M313.1,231.7l-4.3-2.5c-0.3-0.2-0.3-0.5,0.1-0.8l4.2-2.4c0.4-0.2,1-0.3,1.3-0.1l4.3,2.5
						c0.3,0.2,0.3,0.5-0.1,0.8l-4.2,2.4C314,231.9,313.4,231.9,313.1,231.7z"/>
					<path class="st9" d="M319.7,235.5l-4.3-2.5c-0.3-0.2-0.3-0.5,0.1-0.8l4.2-2.4c0.4-0.2,1-0.3,1.3-0.1l4.3,2.5
						c0.3,0.2,0.3,0.5-0.1,0.8l-4.2,2.4C320.6,235.7,320,235.7,319.7,235.5z"/>
					<path class="st9" d="M326.2,239.3l-4.3-2.5c-0.3-0.2-0.3-0.5,0.1-0.8l4.2-2.4c0.4-0.2,1-0.3,1.3-0.1l4.3,2.5
						c0.3,0.2,0.3,0.5-0.1,0.8l-4.2,2.4C327.2,239.5,326.6,239.5,326.2,239.3z"/>
					<path class="st9" d="M332.8,243.1l-4.3-2.5c-0.3-0.2-0.3-0.5,0.1-0.8l4.2-2.4c0.4-0.2,1-0.3,1.3-0.1l4.3,2.5
						c0.3,0.2,0.3,0.5-0.1,0.8l-4.2,2.4C333.7,243.3,333.1,243.3,332.8,243.1z"/>
					<path class="st9" d="M339.4,246.9l-4.3-2.5c-0.3-0.2-0.3-0.5,0.1-0.8l4.2-2.4c0.4-0.2,1-0.3,1.3-0.1l4.3,2.5
						c0.3,0.2,0.3,0.5-0.1,0.8l-4.2,2.4C340.3,247.1,339.7,247.1,339.4,246.9z"/>
					<path class="st9" d="M345.9,250.7l-4.3-2.5c-0.3-0.2-0.3-0.5,0.1-0.8l4.2-2.4c0.4-0.2,1-0.3,1.3-0.1l4.3,2.5
						c0.3,0.2,0.3,0.5-0.1,0.8l-4.2,2.4C346.9,250.9,346.3,250.9,345.9,250.7z"/>
					<path class="st9" d="M352.5,254.5l-4.3-2.5c-0.3-0.2-0.3-0.5,0.1-0.8l4.2-2.4c0.4-0.2,1-0.3,1.3-0.1l4.3,2.5
						c0.3,0.2,0.3,0.5-0.1,0.8l-4.2,2.4C353.4,254.7,352.8,254.7,352.5,254.5z"/>
					<path class="st9" d="M359.1,258.3l-4.3-2.5c-0.3-0.2-0.3-0.5,0.1-0.8l4.2-2.4c0.4-0.2,1-0.3,1.3-0.1l4.3,2.5
						c0.3,0.2,0.3,0.5-0.1,0.8l-4.2,2.4C360,258.5,359.4,258.5,359.1,258.3z"/>
					<path class="st9" d="M365.6,262.1l-4.3-2.5c-0.3-0.2-0.3-0.5,0.1-0.8l4.2-2.4c0.4-0.2,1-0.3,1.3-0.1l4.3,2.5
						c0.3,0.2,0.3,0.5-0.1,0.8L367,262C366.6,262.2,366,262.3,365.6,262.1z"/>
					<path class="st9" d="M303.1,218.6l-4.3-2.5c-0.3-0.2-0.3-0.5,0.1-0.8l4.2-2.4c0.4-0.2,1-0.3,1.3-0.1l4.3,2.5
						c0.3,0.2,0.3,0.5-0.1,0.8l-4.2,2.4C304,218.7,303.4,218.8,303.1,218.6z"/>
					<path class="st9" d="M296.5,214.8l-4.3-2.5c-0.3-0.2-0.3-0.5,0.1-0.8l4.2-2.4c0.4-0.2,1-0.3,1.3-0.1l4.3,2.5
						c0.3,0.2,0.3,0.5-0.1,0.8l-4.2,2.4C297.5,215,296.9,215,296.5,214.8z"/>
					<path class="st9" d="M290,211l-4.3-2.5c-0.3-0.2-0.3-0.5,0.1-0.8l4.2-2.4c0.4-0.2,1-0.3,1.3-0.1l4.3,2.5
						c0.3,0.2,0.3,0.5-0.1,0.8l-4.2,2.4C290.9,211.2,290.3,211.2,290,211z"/>
					<path class="st9" d="M283.5,207.3l-4.3-2.5c-0.3-0.2-0.3-0.5,0.1-0.8l4.2-2.4c0.4-0.2,1-0.3,1.3-0.1l4.3,2.5
						c0.3,0.2,0.3,0.5-0.1,0.8l-4.2,2.4C284.4,207.4,283.8,207.5,283.5,207.3z"/>
					<path class="st9" d="M290.2,203.4l-4.3-2.5c-0.3-0.2-0.3-0.5,0.1-0.8l1.4-0.8c0.4-0.2,1-0.3,1.3-0.1l4.3,2.5
						c0.3,0.2,0.3,0.5-0.1,0.8l-1.4,0.8C291.1,203.6,290.5,203.6,290.2,203.4z"/>
					<path class="st9" d="M298.7,208.3l-4.3-2.5c-0.3-0.2-0.3-0.5,0.1-0.8l1.4-0.8c0.4-0.2,1-0.3,1.3-0.1l4.3,2.5
						c0.3,0.2,0.3,0.5-0.1,0.8l-1.4,0.8C299.7,208.5,299.1,208.5,298.7,208.3z"/>
					<path class="st9" d="M305.2,212.1l-4.3-2.5c-0.3-0.2-0.3-0.5,0.1-0.8l1.4-0.8c0.4-0.2,1-0.3,1.3-0.1l4.3,2.5
						c0.3,0.2,0.3,0.5-0.1,0.8l-1.4,0.8C306.2,212.2,305.6,212.3,305.2,212.1z"/>
					<path class="st9" d="M311.7,215.8l-4.3-2.5c-0.3-0.2-0.3-0.5,0.1-0.8c0.7-0.4,1.9-1.4,2.7-0.9c0,0,4.3,2.5,4.3,2.5
						c0.3,0.2,0.3,0.5-0.1,0.8l-1.4,0.8C312.7,216,312.1,216,311.7,215.8z"/>
					<path class="st9" d="M318.2,219.6l-4.3-2.5c-0.3-0.2-0.3-0.5,0.1-0.8c0.7-0.4,1.9-1.4,2.7-0.9c0,0,4.3,2.5,4.3,2.5
						c0.3,0.2,0.3,0.5-0.1,0.8l-1.4,0.8C319.2,219.7,318.6,219.8,318.2,219.6z"/>
					<path class="st9" d="M354.6,240.5l-4.3-2.5c-0.3-0.2-0.3-0.5,0.1-0.8l1.4-0.8c0.4-0.2,1-0.3,1.3-0.1l4.3,2.5
						c0.3,0.2,0.3,0.5-0.1,0.8l-1.4,0.8C355.5,240.7,354.9,240.7,354.6,240.5z"/>
					<path class="st9" d="M361.1,244.3l-4.3-2.5c-0.3-0.2-0.3-0.5,0.1-0.8l1.4-0.8c0.4-0.2,1-0.3,1.3-0.1l4.3,2.5
						c0.3,0.2,0.3,0.5-0.1,0.8l-1.4,0.8C362,244.5,361.4,244.5,361.1,244.3z"/>
					<path class="st9" d="M367.6,248.1l-4.3-2.5c-0.3-0.2-0.3-0.5,0.1-0.8c0.7-0.4,1.9-1.4,2.7-0.9c0,0,4.3,2.5,4.3,2.5
						c0.3,0.2,0.3,0.5-0.1,0.8l-1.4,0.8C368.5,248.2,367.9,248.3,367.6,248.1z"/>
					<path class="st9" d="M374.1,251.8l-4.3-2.5c-0.3-0.2-0.3-0.5,0.1-0.8c0.7-0.4,1.9-1.4,2.7-0.9c0,0,4.3,2.5,4.3,2.5
						c0.3,0.2,0.3,0.5-0.1,0.8l-1.4,0.8C375,252,374.4,252,374.1,251.8z"/>
					<path class="st9" d="M309.6,222.4l-4.3-2.5c-0.3-0.2-0.3-0.5,0.1-0.8l4.2-2.4c0.4-0.2,1-0.3,1.3-0.1l4.3,2.5
						c0.3,0.2,0.3,0.5-0.1,0.8l-4.2,2.4C310.6,222.5,310,222.6,309.6,222.4z"/>
					<path class="st9" d="M316.2,226.2l-4.3-2.5c-0.3-0.2-0.3-0.5,0.1-0.8l4.2-2.4c0.4-0.2,1-0.3,1.3-0.1l4.3,2.5
						c0.3,0.2,0.3,0.5-0.1,0.8l-4.2,2.4C317.1,226.3,316.5,226.4,316.2,226.2z"/>
					<path class="st9" d="M322.8,229.9l-4.3-2.5c-0.3-0.2-0.3-0.5,0.1-0.8l4.2-2.4c0.4-0.2,1-0.3,1.3-0.1l4.3,2.5
						c0.3,0.2,0.3,0.5-0.1,0.8l-4.2,2.4C323.7,230.1,323.1,230.1,322.8,229.9z"/>
					<path class="st9" d="M329.3,233.7l-4.3-2.5c-0.3-0.2-0.3-0.5,0.1-0.8l4.2-2.4c0.4-0.2,1-0.3,1.3-0.1l4.3,2.5
						c0.3,0.2,0.3,0.5-0.1,0.8l-4.2,2.4C330.3,233.9,329.7,233.9,329.3,233.7z"/>
					<path class="st9" d="M335.9,237.5l-4.3-2.5c-0.3-0.2-0.3-0.5,0.1-0.8l4.2-2.4c0.4-0.2,1-0.3,1.3-0.1l4.3,2.5
						c0.3,0.2,0.3,0.5-0.1,0.8l-4.2,2.4C336.8,237.7,336.2,237.7,335.9,237.5z"/>
					<path class="st9" d="M342.5,241.3l-4.3-2.5c-0.3-0.2-0.3-0.5,0.1-0.8l4.2-2.4c0.4-0.2,1-0.3,1.3-0.1l4.3,2.5
						c0.3,0.2,0.3,0.5-0.1,0.8l-4.2,2.4C343.4,241.5,342.8,241.5,342.5,241.3z"/>
					<path class="st9" d="M349,245.1l-4.3-2.5c-0.3-0.2-0.3-0.5,0.1-0.8l4.2-2.4c0.4-0.2,1-0.3,1.3-0.1l4.3,2.5
						c0.3,0.2,0.3,0.5-0.1,0.8l-4.2,2.4C350,245.3,349.4,245.3,349,245.1z"/>
					<path class="st9" d="M355.6,248.9l-4.3-2.5c-0.3-0.2-0.3-0.5,0.1-0.8l4.2-2.4c0.4-0.2,1-0.3,1.3-0.1l4.3,2.5
						c0.3,0.2,0.3,0.5-0.1,0.8l-4.2,2.4C356.5,249.1,355.9,249.1,355.6,248.9z"/>
					<path class="st9" d="M362.2,252.7l-4.3-2.5c-0.3-0.2-0.3-0.5,0.1-0.8l4.2-2.4c0.4-0.2,1-0.3,1.3-0.1l4.3,2.5
						c0.3,0.2,0.3,0.5-0.1,0.8l-4.2,2.4C363.1,252.9,362.5,252.9,362.2,252.7z"/>
					<path class="st9" d="M272.1,222.8l-12.5-7.2c-0.3-0.2-0.3-0.5,0.1-0.8l4.2-2.4c0.4-0.2,1-0.3,1.3-0.1l12.5,7.2
						c0.3,0.2,0.3,0.5-0.1,0.8l-4.2,2.4C273,223,272.4,223,272.1,222.8z"/>
					<path class="st9" d="M352.8,269.4l-12.5-7.2c-0.3-0.2-0.3-0.5,0.1-0.8l4.2-2.4c0.4-0.2,1-0.3,1.3-0.1l12.5,7.2
						c0.3,0.2,0.3,0.5-0.1,0.8l-4.2,2.4C353.7,269.6,353.1,269.6,352.8,269.4z"/>
					<path class="st9" d="M326.5,262.6l-4.3-2.5c-0.3-0.2-0.3-0.5,0.1-0.8l5-2.9c0.4-0.2,1-0.3,1.3-0.1l4.3,2.5
						c0.3,0.2,0.3,0.5-0.1,0.8l-5,2.9C327.4,262.8,326.8,262.8,326.5,262.6z"/>
					<path class="st9" d="M278.8,235.1l-6.8-3.9c-0.3-0.2-0.3-0.5,0.1-0.8l5-2.9c0.4-0.2,1-0.3,1.3-0.1l6.8,3.9
						c0.3,0.2,0.3,0.5-0.1,0.8l-5,2.9C279.8,235.3,279.2,235.3,278.8,235.1z"/>
					<path class="st9" d="M320.2,259l-6.8-3.9c-0.3-0.2-0.3-0.5,0.1-0.8l5-2.9c0.4-0.2,1-0.3,1.3-0.1l6.8,3.9
						c0.3,0.2,0.3,0.5-0.1,0.8l-5,2.9C321.1,259.1,320.5,259.2,320.2,259z"/>
					<path class="st9" d="M288.3,240.6l-6.8-3.9c-0.3-0.2-0.3-0.5,0.1-0.8l5-2.9c0.4-0.2,1-0.3,1.3-0.1l6.8,3.9
						c0.3,0.2,0.3,0.5-0.1,0.8l-5,2.9C289.2,240.7,288.6,240.8,288.3,240.6z"/>
					<path class="st9" d="M288,232.9l29.6,17.1c0.4,0.2,0.4,0.6,0,0.8l-5.1,3c-0.4,0.2-1,0.2-1.3,0l-29.6-17.1L288,232.9z"/>
					<path class="st9" d="M344.9,269.5l4.7,2.7c0.3,0.2,0.2,0.4-0.1,0.6l-2.1,1.2c-0.3,0.2-0.8,0.2-1.1,0l-4.7-2.7
						c-0.3-0.2-0.2-0.4,0.1-0.6l2.1-1.2C344.1,269.4,344.6,269.3,344.9,269.5z"/>
					<path class="st9" d="M338.2,265.7l4.7,2.7c0.3,0.2,0.2,0.4-0.1,0.6l-2.1,1.2c-0.3,0.2-0.8,0.2-1.1,0l-4.7-2.7
						c-0.3-0.2-0.2-0.4,0.1-0.6l2.1-1.2C337.5,265.5,338,265.5,338.2,265.7z"/>
					<path class="st9" d="M331.7,261.9l4.7,2.7c0.3,0.2,0.2,0.4-0.1,0.6l-2.1,1.2c-0.3,0.2-0.8,0.2-1.1,0l-4.7-2.7
						c-0.3-0.2-0.2-0.4,0.1-0.6l2.1-1.2C330.9,261.7,331.4,261.7,331.7,261.9z"/>
					<path class="st9" d="M341.9,263.6l4.7,2.7c0.3,0.2,0.2,0.4-0.1,0.6l-2.1,1.2c-0.3,0.2-0.8,0.2-1.1,0l-4.7-2.7
						c-0.3-0.2-0.2-0.4,0.1-0.6l2.1-1.2C341.1,263.4,341.6,263.4,341.9,263.6z"/>
				</g>
			</g>
			<g>
				<path class="st1" d="M408.9,161.4c-2,0-3.5-3.3-1.5-4.3C409.7,156.2,411.8,161.1,408.9,161.4z M407.9,157.5
					c-2.2,0.3-0.4,4.1,1.4,3.4C410.7,160,409.4,157.5,407.9,157.5z"/>
				<path class="st1" d="M414.3,164.5c-2,0-3.5-3.3-1.5-4.3C415.1,159.3,417.3,164.3,414.3,164.5z M413.3,160.6
					c-2.2,0.3-0.4,4.1,1.4,3.4C416.1,163.2,414.8,160.6,413.3,160.6z"/>
				<path class="st1" d="M420.9,166.4c-0.2,0.9-1.1,1.3-2.1,0.7c-0.9-0.5-1.5-1.7-1.3-2.7c0.2-0.9,1.1-1.3,2.1-0.7
					C420.5,164.3,421.1,165.5,420.9,166.4z"/>
			</g>
			<polygon class="st1" points="317.1,106.7 314.2,105 314.4,103.7 317.3,105.4 			"/>
			<polygon class="st1" points="321.3,109.1 318.4,107.5 318.6,106.1 321.5,107.8 			"/>
			<polygon class="st1" points="312.9,104.3 306.5,100.6 306.8,99.3 313.1,103 			"/>
		</g>
		<g>
			<g>
				<polygon class="st1" points="313.7,129.6 308.9,126.8 309,125.6 313.9,128.4 				"/>
				<polygon class="st1" points="317.8,131.9 315.4,130.5 315.6,129.4 318,130.8 				"/>
				<polygon class="st1" points="314.7,133 312.6,131.8 312.8,130.7 314.9,131.9 				"/>
				<polygon class="st1" points="318.1,135 315.7,133.6 315.9,132.5 318.3,133.9 				"/>
				<polygon class="st1" points="321.7,139.9 312.2,134.4 312.4,133.3 321.9,138.8 				"/>
				<polygon class="st1" points="313.4,161.9 303.9,156.4 304.1,155.3 313.6,160.8 				"/>
				<polygon class="st1" points="317.1,164 314.7,162.6 314.9,161.5 317.3,162.9 				"/>
				<polygon class="st1" points="313.8,138.3 311.7,137.1 311.9,135.9 314,137.1 				"/>
				<polygon class="st1" points="317.3,140.3 314.8,138.9 315,137.7 317.5,139.1 				"/>
				<polygon class="st1" points="316.5,142.7 311.3,139.7 311.5,138.6 316.7,141.6 				"/>
				<polygon class="st1" points="320,144.7 317.6,143.3 317.8,142.2 320.2,143.6 				"/>
				<polygon class="st1" points="323.6,146.8 321.1,145.4 321.3,144.3 323.8,145.7 				"/>
				<polygon class="st1" points="329.2,150.1 324.7,147.4 324.9,146.3 329.4,148.9 				"/>
				<polygon class="st1" points="325.6,153.7 323.2,152.3 323.4,151.2 325.8,152.6 				"/>
				<polygon class="st1" points="331.3,157 326.7,154.4 326.9,153.2 331.5,155.9 				"/>
				<polygon class="st1" points="312.8,146.3 310.4,144.9 310.6,143.8 313,145.2 				"/>
				<polygon class="st1" points="316.4,148.4 313.9,147 314.1,145.9 316.6,147.3 				"/>
				<polygon class="st1" points="322.1,151.7 317.5,149 317.7,147.9 322.2,150.5 				"/>
				<polygon class="st1" points="329.5,153.1 327.1,151.7 327.3,150.6 329.7,152 				"/>
				<polygon class="st1" points="333,155.1 330.6,153.7 330.8,152.6 333.2,154 				"/>
				<polygon class="st1" points="338.7,158.4 334.1,155.8 334.3,154.6 338.9,157.3 				"/>
				<polygon class="st1" points="320.9,166.2 318.5,164.8 318.7,163.7 321.1,165.1 				"/>
				<polygon class="st1" points="326.6,169.5 322,166.9 322.2,165.7 326.8,168.4 				"/>
				<polygon class="st1" points="312,151.6 309.5,150.2 309.7,149.1 312.2,150.5 				"/>
				<polygon class="st1" points="317.6,154.9 313.1,152.2 313.2,151.1 317.8,153.8 				"/>
				<polygon class="st1" points="323.5,170.6 321.1,169.2 321.3,168.1 323.7,169.5 				"/>
				<polygon class="st1" points="329.2,173.9 324.6,171.3 324.8,170.2 329.4,172.8 				"/>
				<polygon class="st1" points="328.9,144.1 326.5,142.7 326.7,141.6 329.1,143 				"/>
				<polygon class="st1" points="325.3,142 322.9,140.6 323,139.5 325.5,140.9 				"/>
				<polygon class="st1" points="334.6,147.4 330,144.8 330.2,143.6 334.8,146.3 				"/>
				<polygon class="st1" points="313,143.6 310.9,142.3 311,141.2 313.2,142.5 				"/>
				<polygon class="st1" points="319.5,147.3 314.2,144.3 314.4,143.1 319.7,146.2 				"/>
				<polygon class="st1" points="326,151.1 320.7,148 320.9,146.9 326.2,149.9 				"/>
				<polygon class="st1" points="338,149.3 335.8,148.1 336,147 338.2,148.2 				"/>
				<polygon class="st1" points="344.5,153.1 339.2,150 339.4,148.9 344.7,152 				"/>
				<polygon class="st1" points="351,156.8 345.7,153.8 345.8,152.6 351.2,155.7 				"/>
				<polygon class="st1" points="315.3,150.7 310,147.6 310.2,146.5 315.5,149.5 				"/>
				<polygon class="st1" points="318.1,152.3 316.5,151.3 316.7,150.2 318.3,151.2 				"/>
				<polygon class="st1" points="320.9,153.9 319.3,153 319.5,151.8 321.1,152.8 				"/>
				<polygon class="st1" points="326.1,156.9 322.1,154.6 322.3,153.5 326.3,155.8 				"/>
				<polygon class="st1" points="332,151.6 330.3,150.7 330.5,149.6 332.1,150.5 				"/>
				<polygon class="st1" points="337.1,154.6 333.1,152.3 333.3,151.2 337.3,153.5 				"/>
				<polygon class="st1" points="338.2,155.2 334.2,152.9 334.4,151.8 338.4,154.1 				"/>
				<polygon class="st1" points="316.9,169.7 311.6,166.6 311.8,165.5 317.1,168.5 				"/>
				<polygon class="st1" points="320.4,171.7 317.9,170.3 318.1,169.2 320.6,170.6 				"/>
				<polygon class="st1" points="323.9,173.7 321.5,172.3 321.7,171.2 324.1,172.6 				"/>
				<polygon class="st1" points="329.6,177 325,174.4 325.2,173.2 329.8,175.9 				"/>
				<polygon class="st1" points="333.2,179.1 330.8,177.7 331,176.6 333.4,178 				"/>
				<polygon class="st1" points="338.9,182.4 334.3,179.7 334.5,178.6 339.1,181.3 				"/>
				<polygon class="st1" points="321.5,178.1 319,176.7 319.2,175.6 321.6,177 				"/>
				<polygon class="st1" points="327.1,181.4 322.6,178.7 322.7,177.6 327.3,180.2 				"/>
				<polygon class="st1" points="308.8,170.8 306.4,169.4 306.6,168.2 309,169.6 				"/>
				<polygon class="st1" points="312.3,172.8 309.9,171.4 310.1,170.3 312.5,171.7 				"/>
				<polygon class="st1" points="318,176.1 313.4,173.4 313.6,172.3 318.2,175 				"/>
				<polygon class="st1" points="313.4,170.5 311.2,169.3 311.4,168.1 313.6,169.4 				"/>
				<polygon class="st1" points="319.9,174.3 314.5,171.2 314.7,170.1 320,173.2 				"/>
				<polygon class="st1" points="326.3,178 321,174.9 321.2,173.8 326.5,176.9 				"/>
				<polygon class="st1" points="307,172.6 301.7,169.5 301.9,168.4 307.2,171.5 				"/>
				<polygon class="st1" points="309.8,174.2 308.2,173.3 308.4,172.2 310,173.1 				"/>
				<polygon class="st1" points="312.6,175.9 311,174.9 311.2,173.8 312.8,174.7 				"/>
				<polygon class="st1" points="317.8,178.9 313.8,176.5 314,175.4 318,177.7 				"/>
				<polygon class="st1" points="318.9,179.5 314.9,177.2 315.1,176 319.1,178.4 				"/>
				<polygon class="st1" points="309.4,162.5 307.8,161.5 308,160.4 309.6,161.4 				"/>
				<polygon class="st1" points="314.6,165.5 310.6,163.2 310.8,162 314.8,164.4 				"/>
				<polygon class="st1" points="319.9,168.5 315.9,166.2 316.1,165.1 320.1,167.4 				"/>
				<polygon class="st1" points="340.3,186.1 337.9,184.7 338.1,183.6 340.5,185 				"/>
				<polygon class="st1" points="346,189.4 341.4,186.7 341.6,185.6 346.2,188.3 				"/>
				<polygon class="st1" points="331.4,180.9 327.4,178.6 327.6,177.5 331.6,179.8 				"/>
				<polygon class="st1" points="336.7,184 332.7,181.7 332.9,180.6 336.9,182.9 				"/>
				<polygon class="st1" points="306.6,151.4 304.9,150.4 305.1,149.3 306.8,150.2 				"/>
				<polygon class="st1" points="311.8,154.4 307.7,152 307.9,150.9 311.9,153.2 				"/>
				<polygon class="st1" points="317.1,157.4 313,155.1 313.2,154 317.2,156.3 				"/>
			</g>
			<path class="st1" d="M397.2,198.3c-0.4,0-0.7-0.1-1.1-0.3l-32.5-18.7c-1.3-0.8-2.2-2.7-1.9-4.3l2.1-12.4c0.2-1.6,1.7-2.5,3.1-1.6
				c0,0,32.5,18.7,32.5,18.7c1.3,0.8,2.2,2.7,1.9,4.3c0,0-2.1,12.4-2.1,12.4C398.9,197.4,398.2,198.2,397.2,198.3z M365.7,161
				c-0.8,0-1.3,0.7-1.5,1.6c0,0-2.1,12.4-2.1,12.4c-0.2,1.4,0.5,3.2,1.7,3.8l32.5,18.7c1.1,0.7,2.2,0,2.4-1.3c0,0,2.1-12.4,2.1-12.4
				c0.2-1.4-0.5-3.2-1.7-3.8l-32.5-18.7C366.3,161.1,366,161,365.7,161z"/>
			<path class="st1" d="M393.6,219.5c-0.4,0-0.7-0.1-1.1-0.3L360,200.5c-1.3-0.8-2.2-2.7-1.9-4.3l2.1-12.4c0.2-1.6,1.7-2.5,3.1-1.6
				c0,0,32.5,18.7,32.5,18.7c1.3,0.8,2.2,2.7,1.9,4.3c0,0-2.1,12.4-2.1,12.4C395.4,218.7,394.7,219.5,393.6,219.5z M392.7,218.8
				c1.1,0.7,2.2,0,2.4-1.3c0,0,2.1-12.4,2.1-12.4c0.2-1.4-0.5-3.2-1.7-3.8L363,182.6c-1.1-0.7-2.2,0-2.4,1.3c0,0-2.1,12.4-2.1,12.4
				c-0.2,1.4,0.5,3.2,1.7,3.8L392.7,218.8z"/>
			
				<linearGradient id="SVGID_00000086687465135199075480000013073173621525508483_" gradientUnits="userSpaceOnUse" x1="517.4326" y1="174.2568" x2="564.0645" y2="194.2068" gradientTransform="matrix(1 0 0 1 -148.4279 0)">
				<stop  offset="0" style="stop-color:#42E8E0"/>
				<stop  offset="0.1055" style="stop-color:#37B6BF"/>
				<stop  offset="0.2197" style="stop-color:#2C87A1"/>
				<stop  offset="0.338" style="stop-color:#235F87"/>
				<stop  offset="0.4587" style="stop-color:#1C3F72"/>
				<stop  offset="0.5824" style="stop-color:#162561"/>
				<stop  offset="0.7105" style="stop-color:#121355"/>
				<stop  offset="0.8458" style="stop-color:#10084E"/>
				<stop  offset="1" style="stop-color:#0F054C"/>
			</linearGradient>
			<path style="opacity:0.5;fill:url(#SVGID_00000086687465135199075480000013073173621525508483_);" d="M366.5,177.9
				c0.6,0.3,1.1,0.2,1.3-0.3l3.8-10.3c0.4-1.2,2.2-0.1,2.6,1.6l2.3,10.4c0.2,0.8,0.7,1.5,1.3,1.9c0.6,0.4,1.4,0.9,1.8,0.1
				c0,0,0.8-1.6,0.8-1.6c0.5-1,2.1-0.1,2.5,1.5l0,0c0.3,1,0.9,1.6,1.7,2c0.6,0.3,1.1,0.2,1.3-0.3l0.7-2.2c0.4-1.2,2.2-0.2,2.6,1.5
				l2.3,9.6c0.2,0.8,0.7,1.5,1.3,1.8L366.5,177.9z"/>
			<path class="st1" d="M388.7,214.6c-0.6-0.4-1.2-1.2-1.4-2l-2.3-9.6c-0.2-1.1-1.6-2.5-2.1-1.5c0,0-0.7,2.2-0.7,2.2
				c-0.4,1-1.4,0.7-2.1,0.2c-0.6-0.4-1.2-1.1-1.4-1.9c-0.3-1-1.5-2.3-2.1-1.5c-0.8,1.5-0.8,3-2.9,1.6c-0.7-0.4-1.2-1.2-1.4-2
				l-2.3-10.4c-0.2-1-1.1-1.8-1.6-1.9c-0.2,0-0.4,0.1-0.5,0.3l-3.8,10.3c-0.3,0.7-1,0.8-1.6,0.4l0.2-0.4c0.4,0.2,0.8,0.2,0.9-0.2
				c0,0,3.8-10.3,3.8-10.3c0.2-0.4,0.5-0.7,0.9-0.6c0.8,0,1.8,1,2.1,2.2l2.3,10.4c0.2,1,0.9,1.7,1.7,2c0.4,0.2,0.7,0.2,0.9-0.1
				c0,0,0.8-1.6,0.8-1.6c0.2-0.4,0.5-0.6,0.9-0.5c0.8,0.1,1.7,1,2,2.1c0.2,0.7,0.6,1.3,1.2,1.6c0.4,0.3,1.2,0.8,1.4,0.1
				c0,0,0.7-2.2,0.7-2.2c0.1-0.5,0.5-0.7,0.9-0.7c0.8,0,1.8,0.9,2.1,2.2l2.3,9.6c0.2,0.7,0.7,1.4,1.2,1.7L388.7,214.6z"/>
		</g>
	</g>
</g>
</svg>
