<?xml version="1.0" encoding="utf-8"?>
<!-- Generator: Adobe Illustrator 27.0.1, SVG Export Plug-In . SVG Version: 6.00 Build 0)  -->
<svg version="1.1" id="Layer_1" xmlns="http://www.w3.org/2000/svg" xmlns:xlink="http://www.w3.org/1999/xlink" x="0px" y="0px"
	 viewBox="0 0 612 792" style="enable-background:new 0 0 612 792;" xml:space="preserve">
<style type="text/css">
	.st0{fill:#33669A;stroke:#000000;stroke-miterlimit:10;}
	.st1{fill:#89D0C2;}
	.st2{fill:#FFFFFF;stroke:#000000;stroke-miterlimit:10;}
</style>
<path class="st0" d="M285.3,415.6"/>
<g>
	<path class="st1" d="M297.1,313.8l-17.6,47.2c-1.2,3.1-1.1,6.9,0.1,10l15.8,39.7c3.4,8.6,12.3,5.2,12.5-4.8l1.8-86.9
		C309.9,308.4,300.5,304.6,297.1,313.8z"/>
	<path class="st1" d="M354.8,292.5l-18.9-9.8c-1.8-0.9-3.9-0.9-5.6,0.2l-15.5,9.7c-4.8,3-2.7,10.5,3,10.5l34.4,0.1
		C358.1,303.2,360,295.2,354.8,292.5z"/>
	<path class="st1" d="M356.1,349.3c-0.2,6,7.8,8.2,10.7,3l10.7-19.1c1-1.8,1-4,0-5.7l-9.5-16.3c-2.9-5-10.5-3-10.7,2.7L356.1,349.3z
		"/>
	<path class="st1" d="M383.1,408l-3.9-18.9c-0.5-2.2-2-4-4.1-4.7l-15.7-5.3c-6-2-10.9,5-6.9,9.9l19.6,24.3
		C376.2,418.3,384.5,414.5,383.1,408z"/>
	<path class="st1" d="M343.2,358.8l-16.5-0.1c-5.6,0-7.5,7.5-2.5,10.1l9,4.7c1.7,0.9,3.7,0.8,5.3-0.2l7.5-4.7
		C350.6,365.8,348.6,358.8,343.2,358.8z"/>
</g>
<path class="st2" d="M391.5,557.4"/>
</svg>
